PathFileType	4	(X/Y/Z)	Run_500 02
DataRate	CameraRate	NumFrames	NumMarkers	Units	OrigDataRate	OrigDataStartFrame	OrigNumFrames
120	120	4	42	mm	120	324	128
Frame#	Time	LASI			RASI			LPSI			RPSI			RTH1			RTH2			RTH3			LTH1			LTH2			LTH3			RTB1			RTB2			RTB3			LTB1			LTB2			LTB3			RCAL			RTOE			RMT5			LCAL			LTOE			LMT5			LACR			RACR			CLAV			C7			RUA1			RUA2			RUA3			RLEL			RMEL			LUA1			LUA2			LUA3			LLEL			LMEL			RFAsuperior			RFAradius			RFAulna			LFAsuperior			LFAradius			LFAulna		
		X1	Y1	Z1	X2	Y2	Z2	X3	Y3	Z3	X4	Y4	Z4	X5	Y5	Z5	X6	Y6	Z6	X7	Y7	Z7	X8	Y8	Z8	X9	Y9	Z9	X10	Y10	Z10	X11	Y11	Z11	X12	Y12	Z12	X13	Y13	Z13	X14	Y14	Z14	X15	Y15	Z15	X16	Y16	Z16	X17	Y17	Z17	X18	Y18	Z18	X19	Y19	Z19	X20	Y20	Z20	X21	Y21	Z21	X22	Y22	Z22	X23	Y23	Z23	X24	Y24	Z24	X25	Y25	Z25	X26	Y26	Z26	X27	Y27	Z27	X28	Y28	Z28	X29	Y29	Z29	X30	Y30	Z30	X31	Y31	Z31	X32	Y32	Z32	X33	Y33	Z33	X34	Y34	Z34	X35	Y35	Z35	X36	Y36	Z36	X37	Y37	Z37	X38	Y38	Z38	X39	Y39	Z39	X40	Y40	Z40	X41	Y41	Z41	X42	Y42	Z42	

324	  2.700000	757.632542	1009.682304	-472.973496	751.348610	980.522448	-242.353811	591.830018	1035.839710	-407.944363	591.329838	1034.357414	-317.123958	628.537042	820.867406	-198.479182	619.809639	690.861284	-227.604651	478.404095	627.346372	-227.987940	776.780858	904.361545	-535.344701	886.501097	857.064853	-516.943055	924.256359	713.464229	-522.680037	408.757602	424.094304	-282.734602	337.123520	398.035742	-225.821015	284.157087	289.863238	-291.516894	991.299365	514.754092	-445.513242	903.025293	437.584668	-493.036514	874.789450	362.742903	-416.564508	119.616307	272.585977	-297.126572	230.805754	 85.807542	-323.363384	189.061943	 91.249736	-234.764705	716.235429	293.923598	-416.052790	918.616894	216.310290	-393.503985	886.431907	188.494815	-477.549355	694.215561	1478.776336	-511.389832	790.225059	1448.684754	-167.361832	839.569677	1412.882716	-346.556199	710.966859	1500.312869	-333.087958	813.692443	1334.183741	-116.582531	847.378371	1273.543284	-134.496079	781.729827	1234.097662	-55.366754	836.336963	1167.721494	-50.159219	769.883537	1122.494916	-96.004640	631.216396	1456.866753	-556.919990	558.531211	1421.380491	-534.349970	571.919175	1406.902205	-612.871102	488.818425	1349.130689	-669.235910	449.276500	1306.865219	-602.265551	894.393677	1199.162783	-103.172425	965.384610	1255.064056	-243.171328	984.258886	1190.628350	-232.242964	546.969219	1313.321070	-685.665552	682.375907	1196.043971	-658.200977	635.277150	1158.840258	-687.426120	
325	  2.708333	759.125744	1013.429498	-472.105640	753.395516	982.530053	-243.692276	593.819699	1040.501448	-406.782487	593.997551	1038.896604	-316.073232	627.333162	825.959951	-197.991479	615.834305	695.792098	-223.060425	474.298984	634.549936	-227.191699	777.470941	908.578571	-535.539526	886.074228	859.161055	-517.870893	922.900997	714.143726	-520.615200	397.409829	432.304914	-280.264883	324.124298	410.258910	-224.580729	265.601414	304.794011	-289.917689	1002.032942	513.747759	-445.624423	921.162645	428.139909	-492.991083	901.066167	350.445308	-416.827765	105.541421	301.043533	-297.736020	195.620343	102.676332	-321.287960	151.272460	109.736723	-235.260439	750.049253	265.382225	-415.060127	959.739369	210.461242	-393.212697	930.202208	178.572195	-477.108692	691.209646	1480.929313	-511.959839	793.690065	1452.333614	-170.530065	839.928572	1415.866753	-350.133339	711.182995	1502.735201	-334.437572	819.663209	1338.992976	-118.952303	853.208872	1277.824073	-136.669852	789.795000	1239.890680	-55.211480	844.138296	1173.383559	-51.911837	774.289230	1127.323847	-93.238384	628.471800	1460.226111	-556.892499	556.123048	1426.196171	-534.753685	569.037750	1411.398955	-613.612130	485.225916	1354.147609	-670.169815	446.527263	1311.006603	-603.504776	898.246099	1205.106027	-108.773235	958.219159	1261.089117	-253.329685	979.215223	1197.536371	-243.943072	543.632758	1319.946776	-687.597657	682.171865	1205.748611	-661.599757	635.749316	1167.326952	-690.436313	
326	  2.716667	760.141346	1016.246173	-471.551307	755.236071	985.191939	-243.837685	595.154540	1044.852217	-405.593083	596.749147	1043.395364	-315.111752	627.430505	829.883047	-197.812992	615.403496	699.123033	-219.340647	474.384747	638.160492	-226.413793	776.307295	909.567883	-535.358660	884.099472	859.024980	-519.534468	920.298832	712.976456	-519.398994	387.836355	437.966752	-278.966343	313.105907	421.010277	-224.489361	247.043061	320.779336	-289.868675	1010.162019	511.042715	-445.805801	937.297214	417.994882	-493.112077	925.382363	338.285191	-417.361043	 90.308764	330.714484	-298.740874	160.581814	123.891499	-320.177365	114.658785	134.290658	-235.849024	783.442719	238.444659	-414.046219	997.869352	205.800392	-393.728883	970.867321	170.505859	-477.547970	688.548163	1482.294316	-512.607114	797.115853	1455.386077	-173.432714	840.533699	1418.211778	-353.801122	711.697332	1504.668275	-335.867548	824.231574	1342.847533	-120.881160	857.870791	1281.538731	-137.759904	795.087627	1244.716946	-55.730709	850.005005	1178.180121	-53.257098	777.742342	1131.187995	-90.724683	626.152777	1462.655229	-557.204651	553.939772	1429.811457	-535.658039	566.526576	1414.744914	-614.750175	482.210591	1357.809052	-671.521759	444.433185	1313.737868	-605.252649	900.967141	1209.407583	-113.589352	950.781105	1264.576518	-261.868667	973.182414	1201.679321	-255.180368	540.927624	1325.216143	-690.002677	682.662947	1214.400864	-664.765661	637.081603	1174.846311	-693.510070	
327	  2.725000	760.441861	1018.037845	-471.430510	756.983317	988.192818	-243.332199	596.034882	1048.683282	-404.501094	599.363987	1047.498241	-314.338201	629.138719	832.101739	-197.909404	618.163231	700.138599	-217.812721	477.911050	638.572369	-225.682676	773.679896	907.650900	-534.859515	881.139918	856.969580	-521.639172	916.428019	709.863406	-518.789101	379.899071	442.336940	-278.636355	303.839961	431.436520	-225.235872	229.473551	338.401319	-290.823153	1015.696646	506.613692	-446.119902	951.090811	407.301696	-493.233641	947.456308	326.591619	-417.800793	 74.779658	361.834006	-299.593323	127.345498	149.477333	-320.634628	 81.236851	163.944234	-236.279809	815.541675	213.589905	-412.957878	1032.374366	201.978768	-395.122264	1007.703034	163.837471	-478.604224	686.394782	1482.927971	-513.346523	800.524592	1457.876509	-176.049507	841.289895	1419.900361	-357.498836	712.621958	1506.195870	-337.312125	827.159878	1345.807124	-122.361051	861.146251	1284.795042	-138.101050	797.576360	1248.502474	-56.695031	853.708463	1181.951833	-54.365996	779.914629	1134.345939	-88.939164	624.406492	1464.170142	-557.856008	552.062253	1432.111952	-537.093043	564.541593	1416.919083	-616.207327	479.929377	1360.142886	-673.204320	443.101872	1315.032140	-607.412043	902.520194	1211.964519	-117.697726	943.824504	1265.611171	-268.840297	966.854850	1203.053999	-265.162620	539.016827	1329.172017	-692.783235	683.943607	1221.983607	-667.764040	639.337368	1181.409273	-696.659581	
